<svg height="400" viewBox="0 0 400 400" width="400" xmlns="http://www.w3.org/2000/svg"><g fill-rule="evenodd"><path d="m188.312 144.763c-9.513 9.856-10.728 11.175-10.597 11.497.065.16 4.977 4.846 10.915 10.412l10.796 10.119 2.838-3.032c1.562-1.667 4.387-4.783 6.279-6.923 1.892-2.141 4.665-5.181 6.163-6.756 1.497-1.576 2.485-2.685 2.195-2.466-.443.335-2.223-1.189-11.168-9.563-5.852-5.479-10.716-9.962-10.809-9.963s-3.069 3.003-6.612 6.675m24.378 34.573-34.517 26.364-.17-13.687-.169-13.688-14.974 13.291-14.974 13.291-.03 38.748c-.017 21.311-.131 39.483-.255 40.381l-.224 1.633-3.491-6.506c-2.701-5.036-3.39-6.577-3.045-6.816.313-.219.245-.258-.232-.132-.805.211-8.362 1.121-9.814 1.181-1.737.071-24.958 3.082-26.565 3.444-3.79.854-29.955 3.955-30.198 3.579-.166-.258-.25-.216-.254.128-.002.282 4.678 4.942 10.401 10.356 5.724 5.415 11.936 11.299 13.805 13.077l3.399 3.232 15.552-2.029c8.554-1.116 16.085-2.105 16.737-2.198 1.421-.204 3.263-.446 4.99-.656.699-.085 3.142-.416 5.431-.734l4.16-.58 14.79-16.61 14.791-16.609-.103-4.626-.103-4.625h-14.702-14.703v-2.48-2.48l65.189.027 65.19.026 9.727-14.762 9.727-14.763-7.67-22.462c-4.219-12.355-7.804-22.768-7.967-23.14s-.328-.791-.368-.931c-.039-.139-.109-.33-.156-.423-.046-.093-.123-.321-.169-.507-.047-.186-.123-.415-.169-.508-.047-.093-.123-.321-.17-.507-.046-.187-.122-.415-.169-.508-.046-.093-.122-.322-.169-.508-.046-.186-.123-.414-.169-.507-.047-.093-.123-.322-.169-.508-.047-.186-.123-.414-.17-.508-.046-.093-.122-.321-.169-.507-.046-.186-.122-.415-.169-.508-.046-.093-.111-.359-.142-.592-.075-.547.169-.61-6.092 1.58-2.964 1.036-5.449 1.824-5.523 1.751-.157-.157 9.146-7.504 9.794-7.735.242-.086.364-.231.271-.322-.329-.322-30.536-13.802-30.916-13.797-.213.003-15.92 11.869-34.905 26.37m42.809 11.038c0 .426 5.692 16.336 17.185 48.035l5.399 14.89-2.195.101c-2.697.125-1.628 2.123-7.395-13.834-2.718-7.523-5.094-14.096-5.278-14.607l-.336-.93-54.028-.085-54.029-.086 2.929-2.115 2.93-2.115h24.079c19.173 0 24.027.086 23.824.423-.14.232.422-.121 1.249-.787 3.355-2.698 13.149-10.127 13.351-10.127.119 0 7.086-5.259 15.483-11.686l15.266-11.687.783 2.083c.431 1.146.783 2.283.783 2.527m-179.164 64.18c-.409 3.1-.882 8.37-1.041 11.605-.092 1.861-.227 3.689-.3 4.061s-.243 1.857-.378 3.299l-.245 2.623h.879c.735 0 22.08-2.533 23.527-2.792.258-.047-1.874-2.135-4.738-4.641-2.863-2.507-5.257-4.676-5.319-4.821-.062-.146-2.344-2.207-5.071-4.58-2.727-2.374-5.445-4.742-6.041-5.262l-1.082-.945z" fill="#ba934c"/><path d="m263.133 97.851c-9.296.913-16.925 1.693-16.953 1.735-1.226 1.803-11.36 19.272-11.247 19.386 1.352 1.351 33.707 26.863 33.99 26.801 1.033-.229 11.375-13.819 10.829-14.231-.297-.225-4.728-3.759-9.846-7.853l-9.305-7.445 11.158-1.047c6.137-.576 11.214-1.109 11.281-1.185.068-.075-.306-3.792-.831-8.259s-.963-8.465-.973-8.883c-.012-.51-.214-.748-.61-.72-.326.023-8.198.788-17.493 1.701" fill="#346434"/><path d="m197.613 135.217c-.517.623-1.076.048 10.861 11.182 11.206 10.452 10.06 9.493 10.646 8.907.433-.433-.584-1.502-8.213-8.639-13.942-13.043-12.794-12.054-13.294-11.45m79.206 33.012-1.184.999 1.184-.396c1.484-.497 1.931-.88 1.506-1.291-.198-.191-.778.074-1.506.688m-120.981 55.121-1.016.673 24.312.002c23.802.002 24.331-.012 25.173-.675l.86-.677-24.157.003c-23.536.002-24.183.019-25.172.674m111.283 3.783c.625 1.735 3.014 8.37 5.308 14.745 3.405 9.456 4.287 11.591 4.789 11.591.9 0 1.007.35-4.574-15.06-4.558-12.588-5.233-14.225-5.903-14.321-.75-.108-.747-.083.38 3.045m-118.898 27.52v.846h14.721 14.721v-.846-.846h-14.721-14.721zm-2.115 16.985c-.788.206-.769.291.586 2.643l1.17 2.03.011-2.453c.011-2.598-.047-2.67-1.767-2.22m-59.132 6.154c-11.07 1.367-12.701 1.642-12.8 2.158-.153.794-.682.835 15.26-1.206 10.937-1.401 13.714-1.854 13.384-2.185-.598-.598-1.743-.509-15.844 1.233" fill="#a4844c"/><path d="m195.983 136.841-1.07 1.105 9.396 8.791c5.168 4.836 10.019 9.351 10.779 10.035l1.383 1.243 1.051-1.089 1.051-1.088-8.312-7.784c-4.571-4.281-9.413-8.803-10.76-10.05l-2.448-2.267zm82.095 31.556c-.114.114-.662.243-1.219.286-.938.074-8.763 5.786-8.41 6.139.123.124 10.758-3.493 11.008-3.743.188-.189-.693-2.889-.943-2.889-.126 0-.322.093-.436.207m-119.364 52.62c-1.024.748-1.968 1.464-2.098 1.592-.131.129 10.746.194 24.171.145l24.407-.089 1.802-1.391c.992-.764 1.803-1.448 1.803-1.518 0-.071-10.851-.121-24.112-.113l-24.112.015zm104.378 3.582c.351.916 9.325 25.767 9.905 27.431.601 1.724 3.825 2.387 3.292.677-.131-.419-2.486-7.005-5.233-14.636l-4.996-13.875-1.602-.105c-1.428-.093-1.576-.038-1.366.508m-107.485 29.123c4.154.054 10.854.054 14.89 0 4.035-.054.637-.098-7.553-.098-8.189 0-11.491.044-7.337.098m-7.384 3.3v1.523h14.721 14.721v-1.523-1.523h-14.721-14.721zm-5.823 15.034c-.876.122-1.683.312-1.793.422s1.369 3.123 3.285 6.695l3.485 6.496.224-1.633c.639-4.65.362-7.433-.985-9.93-1.365-2.53-1.235-2.467-4.216-2.05m-56.671 2.857-11.226 1.39-.221 1.474c-.279 1.861-2.078 1.872 13.99-.081l13.99-1.7-1.469-1.27c-1.805-1.561-.862-1.572-15.064.187" fill="#ac844c"/><path d="m196.929 135.279-.821.931.92-.81c1.167-1.028.474-1.543 9.886 7.351 4.201 3.969 7.638 7.142 7.638 7.049 0-.285-16.212-15.451-16.517-15.451-.157 0-.655.418-1.106.93m-3.199 3.553-2.359 2.454 2.453-2.36c1.349-1.298 2.453-2.402 2.453-2.453 0-.249-.355.081-2.547 2.359m-4.4 4.738-2.02 2.115 2.115-2.02c1.163-1.111 2.115-2.062 2.115-2.115 0-.25-.334.056-2.21 2.02m27.853 8.808 2.446 2.462-.762.828-.762.829.94-.82.939-.82-2.454-2.471c-1.35-1.359-2.53-2.471-2.623-2.471s.931 1.108 2.276 2.463m-2.474 7.774c-3.854 4.001-5.385 5.669-5.202 5.669.095 0 1.889-1.828 3.987-4.061 2.099-2.234 3.762-4.061 3.697-4.061s-1.182 1.104-2.482 2.453m39.969 28.342c.124.465.367 1.075.54 1.354.218.353.244.249.087-.339-.124-.465-.367-1.074-.54-1.353-.218-.353-.244-.25-.087.338m-33.358 21.867c-2.472 1.93-2.728 2.407-.339.63 1.21-.899 2.264-1.684 2.341-1.744.078-.061.001-.102-.169-.093-.171.01-.996.553-1.833 1.207m-5.076 3.892c-1.21.931-2.428 1.935-2.708 2.23-.279.295.749-.406 2.285-1.558 1.535-1.153 2.792-2.165 2.792-2.25 0-.24-.041-.213-2.369 1.578m-4.907 3.889-1.354 1.211 1.438-1.075c1.238-.926 1.685-1.372 1.354-1.352-.047.002-.694.55-1.438 1.216m53.566 35.578c1.171.066 2.998.065 4.061-.002s.105-.121-2.128-.12c-2.234.001-3.103.055-1.933.122m-87.095 6.855c0 3.816.049 5.377.109 3.469.061-1.908.061-5.03 0-6.937-.06-1.908-.109-.347-.109 3.468m-86.188 5.995c1.631 1.436 4.07 3.587 5.419 4.78 1.349 1.192 2.453 2.087 2.453 1.988 0-.227-10.389-9.379-10.647-9.379-.105 0 1.144 1.175 2.775 2.611m52.627 5.068c.326.085.859.085 1.184 0 .326-.085.06-.155-.592-.155-.651 0-.918.07-.592.155m-2.707.338c.325.085.858.085 1.184 0s.059-.155-.592-.155-.918.07-.592.155m-6.007.626c-1.675.24-3.338.449-3.694.465-.357.016-.566.112-.465.213.188.188 8.783-.825 9.038-1.065.236-.223-1.671-.072-4.879.387m-35.702.939c0 .058.495.553 1.1 1.1l1.099.994-.993-1.1c-.927-1.026-1.206-1.256-1.206-.994m46.108 27.877c.326.085.859.085 1.185 0 .325-.085.059-.155-.593-.155-.651 0-.918.07-.592.155m-2.707.338c.326.085.859.085 1.184 0 .326-.085.059-.155-.592-.155s-.918.07-.592.155" fill="#cab287"/></g></svg>